<?xml version="1.0" standalone="no"?>
<!DOCTYPE svg PUBLIC "-//W3C//DTD SVG 20010904//EN"
 "http://www.w3.org/TR/2001/REC-SVG-20010904/DTD/svg10.dtd">
<svg version="1.0" xmlns="http://www.w3.org/2000/svg"
 width="513.000000pt" height="513.000000pt" viewBox="0 0 513.000000 513.000000"
 preserveAspectRatio="xMidYMid meet">
<metadata>
Created by potrace 1.14, written by Peter Selinger 2001-2017
</metadata>
<g transform="translate(0.000000,513.000000) scale(0.100000,-0.100000)"
fill="#000000" stroke="none">
<path d="M2886 4559 c-89 -10 -144 -28 -231 -78 -145 -82 -131 -79 -189 -47
-201 112 -263 131 -392 123 -43 -3 -86 -7 -94 -9 -129 -36 -228 -102 -306
-203 -17 -22 -50 -75 -74 -117 l-44 -78 -90 -1 c-132 -1 -173 -6 -250 -30
-116 -37 -220 -119 -282 -222 -61 -99 -76 -156 -83 -312 l-6 -139 -32 -21
c-17 -11 -66 -42 -109 -69 -102 -65 -168 -135 -209 -221 -79 -168 -77 -327 8
-490 17 -33 34 -62 37 -65 3 -3 16 -26 29 -51 l24 -46 -56 -99 c-31 -54 -63
-118 -71 -142 -66 -187 -14 -407 129 -547 34 -33 80 -69 101 -80 21 -11 65
-36 97 -55 l57 -35 1 -105 c2 -139 3 -154 28 -231 52 -163 192 -300 355 -346
61 -17 100 -21 229 -22 83 -1 99 -4 104 -19 4 -9 9 -19 12 -22 3 -3 17 -25 30
-50 61 -113 126 -187 210 -238 99 -61 186 -86 291 -84 109 1 171 22 313 103
l92 52 40 -23 c140 -78 187 -101 245 -116 132 -34 239 -21 370 43 102 50 182
131 251 255 l54 98 120 1 c137 1 143 1 227 30 181 61 318 223 354 419 3 19 6
85 6 147 0 106 1 113 22 119 11 4 23 9 26 13 9 11 111 71 121 71 5 0 9 5 9 12
0 6 3 8 7 5 3 -4 37 25 74 63 94 98 147 215 153 341 4 73 -9 166 -26 187 -6 6
-8 12 -5 12 9 0 -11 43 -70 152 l-53 97 46 78 c62 103 83 154 98 233 46 240
-65 453 -306 589 l-96 54 -1 121 c0 73 -7 144 -16 179 -46 176 -169 310 -341
372 -78 28 -117 33 -255 34 -94 1 -96 1 -110 29 -43 85 -108 180 -153 226 -79
81 -192 140 -293 152 -26 3 -49 6 -52 8 -3 1 -37 -1 -75 -5z m154 -50 c136
-29 271 -138 343 -276 20 -40 37 -74 37 -77 0 -3 -105 -6 -232 -6 l-233 0 -55
33 c-30 18 -86 51 -125 72 -38 21 -92 52 -120 70 -27 17 -58 34 -68 38 -22 8
-18 28 9 42 10 6 48 26 84 46 81 45 122 59 208 68 73 7 72 7 152 -10z m-809
-5 c46 -14 156 -67 220 -107 17 -10 17 -13 2 -29 -9 -10 -19 -18 -23 -18 -5 0
-86 -45 -181 -99 -197 -113 -154 -103 -461 -102 -202 1 -188 -9 -130 97 69
128 201 234 322 260 79 18 188 16 251 -2z m459 -246 c88 -51 160 -96 160 -100
0 -4 -152 -8 -337 -8 -291 0 -335 2 -323 14 31 29 305 185 327 186 7 0 84 -41
173 -92z m-1175 -159 c6 -7 -25 -74 -55 -119 -19 -27 -64 -108 -89 -155 -40
-80 -101 -155 -124 -155 -3 0 -80 -43 -171 -96 -91 -52 -170 -93 -175 -90 -9
6 -8 217 2 233 3 5 8 22 11 38 9 51 66 151 112 198 84 87 173 134 274 144 25
3 46 6 47 7 5 4 162 0 168 -5z m452 -3 c-3 -8 -441 -267 -554 -327 -33 -18
-39 -5 -14 29 12 17 21 35 21 41 0 6 4 11 9 11 5 0 11 8 14 18 3 9 20 40 36
67 17 28 37 61 44 75 7 14 23 41 34 60 l22 35 196 0 c124 1 194 -3 192 -9z
m1024 -13 c37 -23 82 -48 169 -96 30 -17 73 -42 95 -56 22 -14 60 -36 85 -49
25 -14 82 -46 126 -73 45 -27 87 -49 93 -49 6 0 11 -3 11 -7 0 -5 23 -19 52
-33 57 -28 98 -64 119 -107 30 -60 163 -288 172 -294 5 -3 9 -10 9 -15 0 -9
62 -120 102 -184 13 -19 43 -73 69 -120 l46 -85 0 -433 -1 -432 -26 -48 c-24
-44 -141 -248 -162 -282 -23 -39 -146 -250 -167 -290 -58 -105 -76 -130 -111
-152 -20 -12 -41 -25 -47 -27 -5 -2 -21 -12 -35 -21 -14 -9 -47 -30 -75 -45
-109 -60 -521 -298 -534 -309 -10 -8 -144 -11 -455 -12 l-441 -2 -55 31 c-113
62 -310 176 -325 187 -5 4 -30 19 -55 32 -25 14 -62 35 -82 47 -21 11 -53 30
-72 40 -19 11 -52 30 -73 43 -21 13 -49 29 -63 36 -21 11 -100 119 -100 137 0
2 -26 48 -59 102 -32 54 -114 195 -182 313 l-124 215 -1 435 -1 435 127 220
c140 240 167 288 237 415 26 47 52 91 59 97 7 7 14 16 16 21 3 7 129 83 268
160 25 13 108 62 185 107 208 122 257 149 287 160 17 6 194 10 456 9 417 0
429 -1 463 -21z m536 -103 c40 -69 76 -129 80 -135 12 -14 33 -64 33 -76 0 -6
-24 3 -52 19 -29 17 -69 39 -88 50 -231 129 -442 257 -436 263 3 2 92 4 198 4
l193 0 72 -125z m283 100 c83 -28 175 -94 227 -162 48 -63 59 -84 79 -146 19
-59 32 -292 16 -292 -6 0 -80 39 -164 88 -84 48 -166 94 -181 102 -36 18 -77
59 -77 76 0 8 -4 14 -10 14 -5 0 -10 4 -10 8 0 5 -40 80 -89 167 -50 87 -88
162 -86 165 3 4 55 6 117 5 85 -2 129 -8 178 -25z m-2597 -524 c-13 -22 -28
-48 -33 -56 -19 -30 -126 -215 -133 -230 -4 -8 -13 -24 -20 -35 -7 -12 -36
-62 -66 -112 -30 -51 -58 -90 -61 -88 -3 2 -6 90 -6 194 l1 191 58 35 c32 19
62 35 68 35 5 0 9 3 9 8 0 4 10 12 23 17 32 16 111 59 117 65 3 3 16 13 30 21
36 24 42 4 13 -45z m2762 -39 l160 -93 3 -197 c1 -108 -1 -197 -5 -197 -5 0
-23 26 -41 58 -18 31 -41 71 -52 87 -10 17 -33 56 -50 88 -17 32 -47 83 -66
112 -19 30 -34 56 -34 59 0 5 -40 75 -82 144 -14 23 -16 32 -6 32 7 -1 85 -42
173 -93z m-3125 -364 l0 -226 -72 -126 c-40 -69 -77 -133 -83 -142 -5 -10 -23
-40 -40 -68 -16 -28 -35 -51 -41 -51 -6 0 -37 53 -70 117 l-59 117 0 126 0
126 39 80 c49 99 133 184 236 241 41 22 78 38 83 36 4 -2 7 -106 7 -230z
m3402 205 c140 -83 197 -137 246 -228 18 -33 30 -60 28 -60 -3 0 2 -19 10 -42
8 -23 16 -68 18 -101 3 -53 0 -80 -18 -166 -10 -46 -106 -221 -121 -221 -5 0
-35 44 -65 98 -30 53 -79 138 -109 187 l-55 90 -2 230 c-1 211 0 245 11 245 2
0 28 -14 57 -32z m-3402 -873 c0 -213 -4 -335 -10 -335 -5 0 -22 24 -36 53
-14 28 -32 59 -39 67 -7 8 -25 38 -40 65 -14 28 -39 72 -54 100 l-28 49 34 59
c18 32 33 60 33 62 0 2 23 40 50 85 28 45 50 84 50 87 0 7 31 43 37 43 1 0 3
-151 3 -335z m3440 173 c52 -90 95 -166 96 -169 6 -11 -182 -331 -192 -328
-11 5 -15 659 -4 659 4 0 49 -73 100 -162z m-3651 -250 c32 -60 84 -142 95
-150 6 -4 8 -8 4 -8 -4 0 9 -28 29 -62 93 -163 83 -119 82 -377 0 -189 -3
-231 -14 -231 -8 0 -16 4 -19 9 -4 5 -36 26 -74 46 -161 88 -264 259 -265 440
0 53 14 129 29 159 8 16 14 33 14 38 0 5 15 33 34 62 18 29 37 62 40 74 9 28
30 28 45 0z m3826 -49 c67 -120 88 -188 88 -294 0 -158 -77 -307 -203 -392
-97 -66 -153 -95 -160 -84 -3 7 -7 109 -7 229 l-1 217 36 65 c19 36 46 82 59
102 12 21 23 42 23 48 0 5 3 10 8 10 4 0 12 10 18 23 33 71 82 147 94 147 3 0
23 -32 45 -71z m-3450 -602 c44 -76 87 -151 96 -165 8 -15 29 -52 46 -82 16
-30 42 -76 57 -102 25 -45 26 -48 7 -48 -11 0 -23 4 -26 10 -3 5 -52 35 -108
66 -56 31 -123 70 -148 85 l-46 29 2 187 c1 104 3 192 3 197 3 15 34 -33 117
-177z m3122 -14 l-2 -198 -95 -57 c-52 -32 -98 -57 -101 -58 -4 0 -37 -18 -73
-40 -36 -22 -68 -40 -71 -40 -9 0 10 37 85 165 42 72 92 159 112 195 59 110
134 230 144 230 2 0 2 -89 1 -197z m-3145 -300 c31 -18 61 -33 67 -33 6 0 11
-3 11 -8 0 -4 17 -16 37 -27 55 -29 155 -88 179 -105 11 -8 36 -42 54 -75 18
-33 63 -112 100 -175 37 -63 71 -125 74 -138 7 -22 7 -22 -91 -20 -124 2 -171
12 -258 53 -131 63 -233 192 -260 330 -9 44 -15 226 -9 237 6 10 28 1 96 -39z
m3149 -45 c-3 -129 -17 -192 -59 -276 -22 -46 -93 -128 -145 -169 -25 -19
-110 -60 -152 -73 -47 -13 -275 -25 -275 -13 0 4 25 51 54 103 30 52 76 133
102 179 26 45 56 94 68 107 11 12 86 61 166 107 205 119 223 128 234 117 5 -5
8 -42 7 -82z m-2726 -198 c3 -5 23 -17 43 -27 20 -10 120 -67 222 -127 102
-60 201 -118 220 -128 19 -11 43 -28 54 -38 18 -18 12 -18 -177 -19 -222 -1
-194 -11 -248 86 -13 23 -50 87 -81 142 -32 55 -58 104 -58 110 0 14 17 14 25
1z m2208 -48 c-14 -26 -31 -57 -37 -69 -6 -13 -14 -23 -18 -23 -5 0 -8 -5 -8
-10 0 -6 -18 -40 -40 -76 -22 -36 -40 -69 -40 -73 0 -5 -8 -15 -17 -24 -15
-13 -49 -16 -210 -15 -106 0 -193 3 -193 7 0 4 42 31 93 61 308 180 482 278
489 274 4 -3 -4 -26 -19 -52z m-204 -338 c4 -4 -19 -55 -30 -64 -3 -3 -18 -29
-34 -58 -30 -54 -115 -148 -150 -163 -11 -5 -35 -18 -53 -29 -18 -11 -41 -22
-50 -23 -9 -1 -22 -6 -29 -10 -10 -6 -91 -18 -138 -20 -11 -1 -47 2 -80 6 -56
7 -79 16 -247 103 -42 21 -48 39 -18 49 11 3 20 11 20 16 0 6 4 8 9 4 5 -3 16
0 23 7 8 7 29 22 48 32 19 10 60 33 90 51 30 17 66 38 80 46 14 8 27 16 30 19
15 15 59 34 89 39 37 7 433 2 440 -5z m-1170 -96 c220 -126 211 -121 211 -133
0 -12 -124 -82 -190 -107 -74 -29 -185 -39 -260 -22 -14 3 -36 7 -50 10 -55
12 -162 78 -213 134 -42 46 -137 195 -137 215 0 3 104 5 231 5 l232 0 176
-102z m594 86 c-3 -9 -17 -20 -32 -25 -14 -6 -84 -45 -156 -87 -71 -42 -134
-77 -140 -78 -5 0 -21 7 -35 16 -14 9 -87 52 -162 95 -75 43 -135 82 -132 87
3 4 153 7 334 7 293 0 329 -1 323 -15z"/>
<path d="M2580 3651 c-18 -5 -21 -9 -12 -15 16 -10 8 -182 -9 -203 -9 -10 -8
-13 2 -14 8 0 21 -2 30 -4 20 -4 49 14 33 21 -13 5 -8 132 6 176 11 33 -10 49
-50 39z"/>
<path d="M2150 3602 c0 -6 -16 -14 -36 -18 -85 -16 -102 -111 -23 -128 13 -3
42 -8 64 -11 21 -3 42 -10 46 -16 11 -18 -2 -48 -22 -54 -25 -8 -81 4 -73 16
3 5 1 9 -4 9 -19 0 -21 -14 -6 -42 12 -23 18 -27 29 -18 7 6 17 10 21 9 38 -7
94 38 94 75 0 35 -32 57 -94 65 -64 9 -81 20 -72 49 10 30 45 34 83 11 l32
-20 -11 33 c-12 36 -28 59 -28 40z"/>
<path d="M2831 3600 c-8 -4 -9 -10 -4 -13 11 -7 5 -67 -6 -67 -4 0 -13 -23
-20 -50 -8 -32 -21 -54 -34 -61 -22 -12 -15 -19 28 -33 18 -5 20 -1 18 39 0
25 2 45 7 45 4 0 11 15 14 33 6 29 8 30 20 15 7 -10 24 -54 37 -98 28 -95 44
-100 70 -20 26 78 51 130 61 130 17 0 7 21 -14 29 -25 9 -47 3 -29 -8 12 -8
-24 -131 -39 -131 -5 0 -18 30 -30 68 -41 126 -50 141 -79 122z"/>
<path d="M3200 3419 c0 -22 -95 -138 -119 -147 -24 -8 -24 -9 -5 -25 59 -53
89 -71 123 -73 84 -4 131 55 120 149 -1 9 -6 17 -11 17 -4 0 -8 6 -8 14 0 7
-16 24 -35 37 -19 13 -35 27 -35 32 0 4 -7 7 -15 7 -8 0 -15 -5 -15 -11z m76
-56 c23 -31 17 -85 -13 -121 -35 -41 -93 -54 -123 -27 -25 23 -20 33 64 131
31 38 52 43 72 17z"/>
<path d="M1790 3378 c4 -18 18 -68 29 -110 12 -43 20 -82 16 -87 -10 -17 11
-20 34 -5 20 14 21 41 0 29 -5 -4 -9 -3 -10 2 0 4 -2 16 -4 25 -2 9 7 26 20
38 27 25 60 20 70 -11 6 -19 7 -19 36 2 l30 21 -63 37 c-35 20 -81 49 -103 64
-53 36 -65 35 -55 -5z m84 -61 c18 -13 18 -14 -5 -31 -23 -16 -24 -16 -36 11
-24 56 -14 61 41 20z"/>
<path d="M1531 3151 c-43 -63 -49 -75 -28 -68 16 5 157 -93 157 -110 0 -7 4
-13 9 -13 14 0 72 76 64 84 -11 11 -23 6 -23 -9 0 -23 -32 -18 -63 11 -27 24
-27 27 -10 39 10 7 21 11 25 9 5 -3 8 1 8 8 0 17 -38 41 -51 32 -8 -4 -7 -9 2
-15 12 -7 11 -11 -2 -25 -15 -15 -19 -15 -42 1 -14 9 -27 22 -30 29 -8 19 19
47 50 51 15 2 30 4 33 5 6 1 -42 29 -51 30 -3 0 -25 -27 -48 -59z"/>
<path d="M3476 3157 c2 -7 -9 -20 -26 -30 -16 -10 -30 -22 -30 -28 0 -5 -5 -9
-10 -9 -6 0 -21 -9 -33 -21 -12 -11 -34 -23 -49 -26 l-28 -5 21 -29 c22 -31
39 -38 39 -15 0 16 111 99 147 110 21 7 21 8 5 36 -17 29 -46 43 -36 17z"/>
<path d="M1718 3108 c7 -7 12 -22 12 -35 0 -28 16 -30 29 -4 8 14 6 22 -8 35
-21 19 -52 23 -33 4z"/>
<path d="M2280 2930 c0 -5 7 -10 15 -10 8 0 14 -6 13 -12 -2 -7 4 -11 12 -10
8 2 11 0 7 -5 -5 -4 -14 -8 -19 -8 -6 0 -13 -6 -15 -12 -3 -8 5 -13 19 -13 22
0 24 4 24 40 0 37 -2 40 -28 40 -15 0 -28 -4 -28 -10z"/>
<path d="M2590 2928 c0 -4 4 -8 9 -8 5 0 11 -9 14 -20 3 -13 0 -20 -9 -20 -20
0 -17 -18 4 -23 16 -5 -63 -11 -83 -7 -5 1 -112 1 -236 1 -150 0 -236 -4 -252
-12 -39 -18 -55 -70 -50 -163 4 -87 18 -121 63 -159 16 -14 28 -32 25 -39 -5
-16 14 -42 37 -51 13 -5 16 -18 15 -66 -1 -34 1 -61 5 -61 5 0 8 28 8 63 0 55
3 63 23 72 15 7 22 18 22 38 -1 15 2 27 6 27 14 0 51 41 73 81 l23 44 136 2
137 1 13 -26 c10 -19 13 -68 12 -162 -1 -112 -5 -143 -22 -181 -39 -87 -30
-84 -295 -83 -128 1 -245 -3 -259 -8 -24 -8 -38 -32 -39 -64 0 -7 30 -11 88
-10 48 1 99 -2 115 -6 15 -4 27 -4 27 0 0 4 28 6 62 5 75 -3 81 -3 423 -1 149
0 275 5 281 10 14 11 7 46 -15 71 -13 16 -15 56 -16 275 0 247 -1 259 -23 299
-12 24 -41 55 -63 70 -35 23 -54 28 -131 31 -56 3 -85 8 -77 13 9 6 10 12 4
17 -14 10 -17 32 -5 32 6 0 10 7 10 15 0 11 -9 15 -30 13 -16 -1 -30 -6 -30
-10z m244 -214 c51 -52 35 -143 -30 -170 -43 -18 -86 -11 -117 19 -26 26 -31
40 -29 86 3 84 115 125 176 65z m16 -273 c13 -1 16 -17 16 -88 0 -49 -5 -91
-10 -95 -18 -12 -194 -9 -198 4 -3 11 -3 94 1 160 1 22 42 26 191 19z"/>
<path d="M1389 2905 c-1 -3 -3 -8 -4 -12 -2 -5 -6 -18 -10 -30 -4 -13 -11 -23
-15 -23 -13 0 -2 -51 16 -71 30 -33 76 -21 125 32 28 31 40 35 69 19 16 -8 17
-14 7 -40 -11 -29 -26 -39 -74 -49 -10 -2 38 -30 52 -31 13 0 45 78 45 112 0
33 -41 68 -70 61 -11 -3 -35 -19 -52 -35 -40 -37 -66 -51 -84 -44 -33 12 -6
76 34 79 29 2 29 23 0 31 -28 7 -38 7 -39 1z"/>
<path d="M3400 2871 c0 -4 8 -17 17 -30 l16 -24 9 23 c6 17 11 20 22 11 7 -6
15 -9 18 -6 2 2 10 -11 17 -30 10 -30 10 -37 -3 -50 -8 -8 -22 -12 -30 -9 -19
7 -20 -2 -5 -44 l11 -31 42 42 c23 23 66 64 95 90 29 27 51 51 48 54 -8 8
-257 12 -257 4z m177 -28 c2 -6 -6 -18 -19 -27 -22 -16 -48 -23 -35 -9 4 3 2
13 -5 20 -9 11 -9 16 0 22 18 11 55 7 59 -6z"/>
<path d="M2963 2663 c-13 -5 -19 -143 -7 -155 9 -10 44 4 44 18 0 12 41 11 62
-2 9 -6 11 20 2 29 -3 3 -17 2 -30 -3 -29 -11 -36 -2 -39 54 -2 22 -4 47 -4
54 -1 13 -7 14 -28 5z"/>
<path d="M3547 2501 c-80 -41 -47 -161 43 -161 81 0 114 98 52 150 -37 31 -52
33 -95 11z"/>
<path d="M1386 2491 c-57 -63 -21 -151 61 -151 43 1 74 30 80 77 5 35 2 45
-20 67 -33 32 -95 36 -121 7z"/>
<path d="M1488 2136 c-28 -8 -35 -15 -29 -25 5 -7 14 -10 20 -7 6 4 11 1 11
-8 0 -8 -6 -16 -12 -19 -10 -3 -10 -8 -2 -17 8 -8 14 -9 18 -1 4 6 20 11 37
11 30 0 35 11 23 58 -7 24 -12 25 -66 8z"/>
<path d="M3493 2142 c-11 -7 -16 -26 -14 -51 1 -9 9 -12 26 -9 13 3 26 0 28
-6 7 -19 42 9 39 30 -5 24 -8 27 -30 29 -9 0 -22 4 -28 7 -5 4 -15 4 -21 0z"/>
<path d="M2003 2072 c-28 -4 -29 -13 -4 -29 14 -9 140 -12 484 -13 407 0 466
2 477 15 7 9 10 18 6 22 -6 6 -920 11 -963 5z"/>
<path d="M3456 2054 c-33 -33 -16 -61 33 -55 7 2 10 -2 6 -8 -7 -12 14 -15 31
-3 31 21 19 62 -18 62 -10 0 -18 5 -18 10 0 15 -16 12 -34 -6z"/>
<path d="M1564 2051 c-5 -5 -25 -14 -45 -20 l-36 -12 16 -33 c12 -24 21 -31
35 -28 17 5 18 6 2 17 -22 17 -20 28 4 22 10 -3 21 0 24 7 2 6 5 3 5 -6 1 -11
9 -18 20 -18 19 0 19 2 4 38 -18 45 -17 44 -29 33z"/>
<path d="M3412 1965 c-7 -14 -12 -31 -12 -36 0 -6 -7 -17 -15 -25 -21 -22 -19
-34 7 -34 29 0 14 -13 -20 -18 -34 -4 -48 -25 -22 -32 11 -3 29 -13 41 -23 15
-14 24 -16 32 -8 8 8 5 15 -9 26 -18 14 -18 14 8 15 51 0 46 27 -12 60 -12 7
-13 11 -2 21 10 11 18 10 43 -5 36 -21 48 -14 53 32 4 24 1 30 -10 25 -9 -3
-13 -12 -10 -19 3 -8 1 -14 -4 -14 -6 0 -10 5 -10 10 0 6 -7 10 -16 10 -13 0
-14 3 -5 13 6 8 8 17 4 20 -13 14 -30 6 -41 -18z"/>
<path d="M1568 1943 l-37 -26 16 -28 c18 -31 28 -35 38 -18 4 6 -1 16 -11 24
-18 13 -16 15 19 30 32 13 37 18 27 30 -7 8 -13 15 -14 14 0 -1 -18 -12 -38
-26z"/>
<path d="M1617 1857 c-40 -11 -45 -30 -8 -35 18 -3 20 -6 11 -17 -7 -8 -8 -19
-4 -26 9 -15 66 48 62 69 -4 20 -15 22 -61 9z"/>
<path d="M1696 1812 c-4 -7 -4 -17 0 -24 4 -6 -5 -21 -22 -35 -23 -18 -26 -25
-15 -32 10 -6 21 -1 38 17 23 24 25 25 34 9 6 -10 14 -15 20 -12 22 14 7 -25
-18 -45 -20 -15 -24 -23 -15 -32 9 -9 17 -5 33 16 12 15 28 25 35 22 21 -8 17
8 -8 36 -13 13 -35 39 -49 58 -17 23 -28 30 -33 22z"/>
<path d="M3307 1796 c-8 -20 73 -72 84 -54 5 8 3 14 -6 16 -8 2 -15 8 -15 14
0 6 -3 8 -7 5 -3 -4 -12 2 -20 13 -17 23 -29 25 -36 6z"/>
<path d="M3268 1749 c-23 -13 -23 -48 -2 -56 9 -3 25 -1 35 6 15 9 19 8 19 -4
0 -8 -5 -14 -11 -12 -6 1 -13 -3 -16 -10 -7 -18 36 -3 47 16 6 13 2 24 -20 44
-32 31 -29 30 -52 16z"/>
<path d="M3212 1691 c-11 -6 -8 -13 12 -29 14 -11 26 -27 26 -36 0 -9 5 -16
10 -16 15 0 12 29 -7 61 -19 32 -21 33 -41 20z"/>
<path d="M1783 1665 c-21 -23 -16 -63 10 -76 26 -14 25 -14 55 13 27 26 27 33
2 58 -23 23 -50 25 -67 5z m57 -36 c0 -10 -4 -19 -9 -19 -5 0 -16 -3 -25 -6
-19 -7 -22 26 -5 43 16 16 39 5 39 -18z"/>
<path d="M3165 1650 c-7 -11 72 -66 82 -57 6 7 -54 67 -67 67 -5 0 -11 -4 -15
-10z"/>
<path d="M1879 1594 c-5 -16 -15 -32 -21 -35 -12 -7 -2 -29 13 -29 5 0 9 7 9
15 0 8 5 15 10 15 6 0 10 -13 10 -30 0 -39 9 -38 47 5 29 32 30 36 13 45 -14
8 -19 5 -25 -13 -7 -20 -8 -18 -14 12 -8 44 -28 51 -42 15z"/>
<path d="M3107 1605 c-18 -13 -18 -14 1 -33 11 -11 24 -27 29 -37 9 -15 13
-15 31 -4 29 18 34 35 17 53 -8 8 -15 19 -15 25 0 15 -42 13 -63 -4z m63 -45
c0 -5 -5 -10 -11 -10 -5 0 -7 5 -4 10 3 6 8 10 11 10 2 0 4 -4 4 -10z"/>
<path d="M1973 1534 c-3 -9 -1 -25 6 -35 7 -12 7 -19 1 -19 -5 0 -10 5 -10 10
0 6 -4 10 -10 10 -25 0 -3 -35 28 -44 27 -9 41 17 24 45 -17 26 -15 37 2 13
18 -24 31 -13 16 15 -13 25 -48 28 -57 5z"/>
<path d="M2986 1527 c-16 -12 -16 -14 3 -31 12 -11 21 -27 21 -38 0 -23 22
-23 43 0 46 50 -12 109 -67 69z m62 -34 c4 -31 -12 -29 -33 3 -16 25 -16 26 7
22 15 -2 24 -11 26 -25z"/>
<path d="M2056 1475 c-4 -19 -11 -35 -17 -35 -6 0 -7 -4 -4 -10 3 -5 13 -10
21 -10 8 0 12 5 9 10 -3 6 1 13 10 17 21 7 39 -18 22 -29 -9 -6 -8 -10 3 -18
18 -12 31 -13 28 -2 -3 14 14 62 23 62 5 0 6 7 3 15 -4 8 -12 15 -20 15 -8 0
-14 -7 -14 -15 0 -8 -6 -15 -14 -15 -19 0 -29 17 -16 25 13 8 3 25 -14 25 -8
0 -17 -16 -20 -35z"/>
<path d="M2942 1501 c-7 -4 -10 -15 -6 -24 8 -21 -4 -22 -25 -3 -10 9 -22 12
-29 7 -10 -6 -9 -14 3 -37 8 -16 15 -35 15 -41 0 -7 4 -13 9 -13 17 0 23 20
11 35 -16 19 -7 19 30 0 28 -14 30 -14 29 2 -1 38 -24 82 -37 74z"/>
<path d="M2177 1436 c-3 -17 -8 -39 -12 -48 -5 -13 -2 -18 11 -18 14 0 19 8
20 32 1 18 6 34 13 36 17 6 13 19 -8 25 -15 3 -20 -2 -24 -27z"/>
<path d="M2826 1458 c-14 -8 -15 -12 -5 -18 7 -5 14 -20 16 -34 5 -39 -25 -33
-35 7 -4 17 -14 32 -20 32 -14 0 -14 -5 1 -45 14 -38 44 -48 67 -24 14 16 15
25 6 56 -10 32 -13 35 -30 26z"/>
<path d="M2236 1420 c1 -17 -4 -37 -12 -44 -11 -12 -11 -15 3 -21 11 -3 22 0
29 9 6 9 18 16 27 16 14 0 27 20 27 40 0 7 -53 30 -70 30 -3 0 -5 -14 -4 -30z"/>
<path d="M2675 1413 c-15 -33 -14 -44 5 -63 38 -38 91 5 68 54 -14 31 -61 36
-73 9z m58 -23 c5 -21 -16 -45 -33 -35 -11 7 -14 38 -3 48 13 13 31 7 36 -13z"/>
<path d="M2366 1372 c1 -40 4 -47 23 -50 40 -6 57 30 42 89 0 3 -16 6 -33 7
-33 1 -33 1 -32 -46z"/>
<path d="M2485 1413 c-17 -3 -20 -12 -20 -48 0 -46 7 -52 55 -45 20 3 23 7 15
20 -5 8 -10 8 -20 0 -9 -8 -15 -8 -20 0 -3 5 -1 10 5 10 7 0 9 8 5 20 -5 16
-3 19 10 13 10 -3 21 0 26 8 7 11 13 9 29 -11 11 -14 20 -33 20 -42 0 -10 7
-18 16 -18 10 0 13 6 10 18 -4 10 1 27 9 38 20 27 18 43 -5 41 -14 -1 -19 -6
-15 -16 5 -12 3 -12 -12 1 -12 10 -25 13 -38 8 -11 -4 -27 -4 -35 -1 -8 4 -24
6 -35 4z"/>
</g>
</svg>
